<?xml version="1.0" standalone="no"?>
<!DOCTYPE svg PUBLIC "-//W3C//DTD SVG 20010904//EN"
 "http://www.w3.org/TR/2001/REC-SVG-20010904/DTD/svg10.dtd">
<svg version="1.0" xmlns="http://www.w3.org/2000/svg"
 width="356.000000pt" height="350.000000pt" viewBox="0 0 356.000000 350.000000"
 preserveAspectRatio="xMidYMid meet">

<g transform="translate(0.000000,350.000000) scale(0.100000,-0.100000)"
fill="#000000" stroke="none">
<path d="M1735 3184 c-54 -20 -245 -67 -375 -93 -220 -44 -390 -62 -643 -68
l-248 -6 4 -781 c4 -846 3 -826 61 -994 95 -277 350 -544 741 -779 161 -97
467 -243 509 -243 43 0 357 150 536 257 470 279 720 608 770 1013 6 51 10 372
10 807 l0 723 -167 0 c-345 0 -690 49 -1015 145 -132 39 -128 39 -183 19z
m-225 -532 l105 -27 3 -127 c2 -104 0 -127 -11 -122 -7 2 -21 22 -31 44 -25
57 -98 128 -164 158 -156 71 -336 -1 -358 -144 -20 -132 49 -213 291 -340 273
-143 348 -235 348 -424 -1 -191 -109 -329 -293 -376 -50 -13 -94 -15 -195 -12
-113 4 -143 9 -228 38 -73 25 -101 39 -107 54 -4 12 -9 86 -11 166 -3 124 -2
145 11 145 9 0 23 -22 35 -55 29 -81 69 -143 121 -188 63 -57 128 -77 239 -77
101 1 145 17 202 77 42 44 55 80 56 158 0 125 -56 188 -265 295 -295 151 -356
218 -366 401 -6 121 12 184 74 253 88 98 170 130 334 130 82 0 128 -6 210 -27z
m1236 -26 c-5 -20 -201 -372 -386 -691 -32 -55 -99 -172 -150 -260 -51 -88
-108 -186 -126 -218 -19 -32 -34 -61 -34 -64 0 -10 265 6 385 23 137 19 202
47 244 104 17 23 33 51 36 61 4 10 13 19 22 19 13 0 15 -9 9 -62 -3 -35 -9
-102 -13 -150 l-6 -88 -453 0 c-250 0 -454 2 -454 3 0 2 9 30 20 62 21 60 81
176 155 300 23 38 108 185 190 325 241 416 286 493 311 532 13 21 24 40 24 43
0 17 -474 -6 -527 -26 -38 -14 -81 -56 -104 -101 -35 -69 -42 -59 -35 48 4 54
10 114 13 132 l5 32 440 0 440 0 -6 -24z"/>
</g>
</svg>
